<svg xmlns="http://www.w3.org/2000/svg">

    <symbol id="credit-card" viewBox="0 0 24 24">
        <title>Icon Credit Card</title>
        <path d="M2 4c-1.1 0-2 .9-2 2v12c0 1.1.9 2 2 2h20c1.1 0 2-.9 2-2V6c0-1.1-.9-2-2-2H2zm0 4h20v2H2V8zm0 10v-6h20v6H2zm2-2h4v2H4v-2zm6 0h6v2h-6v-2z" fill="none" stroke="currentColor" stroke-width="2"/>
    </symbol>

    <symbol id="shield" viewBox="0 0 24 24">
        <title>Icon Shield</title>
        <path d="M12 2L3 5v6c0 5.55 3.84 10.74 9 12 5.16-1.26 9-6.45 9-12V5l-9-3z" fill="none" stroke="currentColor" stroke-width="2"/>
    </symbol>

    <symbol id="login" viewBox="0 0 24 24">
        <title>Icon Login</title>
        <path d="M10 16l5-4-5-4v3H2v2h8v3zm10-10h-8V4h8c1.1 0 2 .9 2 2v12c0 1.1-.9 2-2 2h-8v-2h8V6z" fill="none" stroke="currentColor" stroke-width="2"/>
    </symbol>

    <symbol id="logout" viewBox="0 0 24 24">
        <title>Icon Logout</title>
        <path d="M14 16l-5-4 5-4v3h8v2h-8v3zM2 4h8v2H2v12h8v2H2c-1.1 0-2-.9-2-2V6c0-1.1.9-2 2-2z" fill="none" stroke="currentColor" stroke-width="2"/>
    </symbol>

    <symbol id="deposit" viewBox="0 0 24 24">
        <title>Icon Deposit</title>
        <path d="M12 3L4 9v2h16V9l-8-6zM2 19v2h20v-2H2zm10-7c-1.66 0-3 1.34-3 3 0 .95.43 1.81 1.1 2.39L10 18h4l-.1-.61c.67-.58 1.1-1.44 1.1-2.39 0-1.66-1.34-3-3-3z" fill="none" stroke="currentColor" stroke-width="2"/>
    </symbol>

    <symbol id="withdraw" viewBox="0 0 24 24">
        <title>Icon Withdraw</title>
        <path d="M12 21l-8-6v-2h16v2l-8 6zM2 5v2h20V5H2zm10 7c1.66 0 3-1.34 3-3 0-.95-.43-1.81-1.1-2.39L14 6h-4l.1.61C9.43 7.19 9 8.05 9 9c0 1.66 1.34 3 3 3z" fill="none" stroke="currentColor" stroke-width="2"/>
    </symbol>

    <symbol id="history" viewBox="0 0 24 24">
        <title>Icon History</title>
        <path d="M13 3a9 9 0 00-9 9H1l4 4 4-4H5a7 7 0 111.72 4.53l-1.42 1.42A9 9 0 1013 3zm-1 5h2v5l4.28 2.54-1 1.73L11 14V8z" fill="none" stroke="currentColor" stroke-width="2"/>
    </symbol>

    <symbol id="person" viewBox="0 0 24 24">
        <title>Icon Person</title>
        <path d="M12 3a3 3 0 110 6 3 3 0 010-6z" fill="none" stroke="currentColor" stroke-width="2"/>
	<path d="M6 17v-1c0-2 3-4 6-4s6 2 6 4v1" fill="none" stroke="currentColor" stroke-width="2"/>
    </symbol>

    <symbol id="people" viewBox="0 0 24 24">
        <title>Icon People</title>
        <!-- Persona del frente -->
        <path d="M12 3a3 3 0 110 6 3 3 0 010-6z" fill="none" stroke="currentColor" stroke-width="2"/>
        <path d="M6 17v-1c0-2 3-4 6-4s6 2 6 4v1" fill="none" stroke="currentColor" stroke-width="2"/>
    
        <!-- Persona del fondo (más pequeña y desplazada) -->
        <path d="M18.5 3.5a2 2 0 110 4 2 2 0 010-4z" fill="none" stroke="currentColor" stroke-width="2"/>
        <path d="M14 13c0-1.33 2-2.5 4.5-2.5s4.5 1.17 4.5 2.5v1" fill="none" stroke="currentColor" stroke-width="2"/>
    </symbol>

</svg>